<svg width="39" height="46" viewBox="0 0 39 46" fill="none" xmlns="http://www.w3.org/2000/svg">
<path d="M0.676791 0.623657C0.169197 1.15393 0 2.03772 0 3.09827V42.1619C0 43.2224 0.338396 44.1062 0.845989 44.6365L1.01519 44.8133L21.9957 22.8952V22.5417L0.676791 0.623657Z" fill="url(#paint0_linear)"/>
<path d="M28.7635 30.319L21.8264 23.0719V22.5417L28.7635 15.2946L28.9327 15.4713L37.2234 20.4206C39.5922 21.8346 39.5922 24.1325 37.2234 25.5465L28.7635 30.319Z" fill="url(#paint1_linear)"/>
<path d="M28.9328 30.1423L21.8265 22.7184L0.676758 44.8133C1.52275 45.697 2.70713 45.697 4.22991 44.99L28.9328 30.1423Z" fill="url(#paint2_linear)"/>
<path d="M28.9328 15.2946L4.22991 0.623652C2.70713 -0.26014 1.52275 -0.0833815 0.676758 0.800411L21.8265 22.7185L28.9328 15.2946Z" fill="url(#paint3_linear)"/>
<path opacity="0.2" d="M28.7636 29.9655L4.22991 44.4597C2.87633 45.3435 1.69195 45.1667 0.845956 44.4597L0.676758 44.6365L0.845956 44.8132C1.69195 45.5203 2.87633 45.697 4.22991 44.8132L28.7636 29.9655Z" fill="black"/>
<path opacity="0.2" d="M0.676791 44.4597C0.169197 43.9295 0 43.0457 0 41.9851V42.1619C0 43.2224 0.338396 44.1062 0.84599 44.6365V44.4597H0.676791ZM37.2235 25.0163L28.7636 29.9655L28.9328 30.1423L37.2235 25.1931C38.4079 24.486 38.9155 23.6022 38.9155 22.7184C38.9155 23.6022 38.2387 24.3093 37.2235 25.0163Z" fill="black"/>
<path opacity="0.2" d="M4.22995 0.800379L37.2235 20.4206C38.2387 21.1276 38.9155 21.8346 38.9155 22.7184C38.9155 21.8346 38.4079 20.9508 37.2235 20.2438L4.22995 0.623621C1.86118 -0.790447 0 0.270103 0 3.09824V3.275C0 0.623621 1.86118 -0.613689 4.22995 0.800379Z" fill="white"/>
<defs>
<linearGradient id="paint0_linear" x1="19.9654" y1="2.76243" x2="-9.67162" y2="31.13" gradientUnits="userSpaceOnUse">
<stop stop-color="#00A0FF"/>
<stop offset="0.007" stop-color="#00A1FF"/>
<stop offset="0.26" stop-color="#00BEFF"/>
<stop offset="0.512" stop-color="#00D2FF"/>
<stop offset="0.76" stop-color="#00DFFF"/>
<stop offset="1" stop-color="#00E3FF"/>
</linearGradient>
<linearGradient id="paint1_linear" x1="40.3265" y1="22.7202" x2="-0.6143" y2="22.7202" gradientUnits="userSpaceOnUse">
<stop stop-color="#FFE000"/>
<stop offset="0.409" stop-color="#FFBD00"/>
<stop offset="0.775" stop-color="#FFA500"/>
<stop offset="1" stop-color="#FF9C00"/>
</linearGradient>
<linearGradient id="paint2_linear" x1="25.0869" y1="26.7768" x2="-15.1013" y2="65.2461" gradientUnits="userSpaceOnUse">
<stop stop-color="#FF3A44"/>
<stop offset="1" stop-color="#C31162"/>
</linearGradient>
<linearGradient id="paint3_linear" x1="-4.57345" y1="-12.3221" x2="13.3734" y2="4.85704" gradientUnits="userSpaceOnUse">
<stop stop-color="#32A071"/>
<stop offset="0.069" stop-color="#2DA771"/>
<stop offset="0.476" stop-color="#15CF74"/>
<stop offset="0.801" stop-color="#06E775"/>
<stop offset="1" stop-color="#00F076"/>
</linearGradient>
</defs>
</svg>
