<svg width="34" height="41" viewBox="0 0 34 41" fill="none" xmlns="http://www.w3.org/2000/svg">
<path d="M27.8334 21.7951C27.7899 16.6141 32.0737 14.0959 32.2618 13.9802C29.8305 10.4489 26.0677 9.95688 24.7508 9.91347C21.5958 9.58061 18.5277 11.8093 16.9213 11.8093C15.286 11.8093 12.7967 9.95688 10.1339 10.0003C6.70394 10.0582 3.47664 12.0409 1.72551 15.1379C-1.90702 21.4333 0.799285 30.6956 4.28709 35.7898C6.03822 38.279 8.06433 41.0721 10.7417 40.9708C13.3467 40.8695 14.3308 39.3065 17.4713 39.3065C20.5973 39.3065 21.509 40.9708 24.2298 40.9129C27.0374 40.8695 28.7885 38.4092 30.4818 35.8911C32.4934 33.04 33.3038 30.218 33.3328 30.0732C33.2604 30.0443 27.8912 27.9893 27.8334 21.7951Z" fill="#2F2E41"/>
<path d="M22.6957 6.57038C24.0995 4.81924 25.0547 2.43133 24.7942 0C22.7681 0.0868332 20.221 1.4038 18.7593 3.126C17.4713 4.64558 16.3135 7.12032 16.6029 9.45035C18.8895 9.62402 21.234 8.29257 22.6957 6.57038Z" fill="#2F2E41"/>
</svg>
