<svg width="20" height="20" viewBox="0 0 20 20" fill="none" xmlns="http://www.w3.org/2000/svg">
<path d="M0.00425226 14.4891C0.00425226 17.5328 2.13572 20 4.76513 20C7.39458 20 9.52604 17.5328 9.52604 14.4891C9.52604 11.4454 7.39458 8.97821 4.76513 8.97821C4.22474 8.97821 3.70747 9.08725 3.22322 9.27941C4.29462 2.16664 9.08636 -2.4203 4.64443 1.35484C-0.280998 5.54105 -0.00102286 14.3207 0.00448846 14.4816C0.00448846 14.4841 0.00425226 14.4863 0.00425226 14.4891Z" fill="#AF96D9"/>
<path d="M10.4782 14.4891C10.4782 17.5328 12.6096 20 15.2391 20C17.8685 20 20 17.5328 20 14.4891C20 11.4454 17.8685 8.97821 15.239 8.97821C14.6986 8.97821 14.1814 9.08725 13.6971 9.27941C14.7685 2.16664 19.5603 -2.4203 15.1183 1.35484C10.1929 5.54105 10.4728 14.3207 10.4784 14.4816C10.4784 14.4841 10.4782 14.4863 10.4782 14.4891Z" fill="#B096D9"/>
</svg>
