<svg width="525" height="420" viewBox="0 0 525 420" fill="none" xmlns="http://www.w3.org/2000/svg">
<g clip-path="url(#clip0)">
<path opacity="0.1" d="M150.818 72.0316H111.436C109.164 72.0316 107.323 73.8748 107.323 76.1485V82.3211C107.323 84.5948 109.164 86.438 111.436 86.438H150.818C153.089 86.438 154.931 84.5948 154.931 82.3211V76.1485C154.931 73.8748 153.089 72.0316 150.818 72.0316Z" fill="#6C63FF"/>
<path opacity="0.1" d="M200.64 86.438H161.258C158.987 86.438 157.145 88.2812 157.145 90.5549V96.7274C157.145 99.0011 158.987 100.844 161.258 100.844H200.64C202.912 100.844 204.753 99.0011 204.753 96.7274V90.5549C204.753 88.2812 202.912 86.438 200.64 86.438Z" fill="#6C63FF"/>
<path opacity="0.1" d="M250.462 100.844H211.081C208.809 100.844 206.967 102.688 206.967 104.961V111.134C206.967 113.407 208.809 115.251 211.081 115.251H250.462C252.734 115.251 254.575 113.407 254.575 111.134V104.961C254.575 102.688 252.734 100.844 250.462 100.844Z" fill="#6C63FF"/>
<path opacity="0.1" d="M150.818 50.4221H111.436C109.164 50.4221 107.323 52.2653 107.323 54.539V60.7116C107.323 62.9853 109.164 64.8284 111.436 64.8284H150.818C153.089 64.8284 154.931 62.9853 154.931 60.7116V54.539C154.931 52.2653 153.089 50.4221 150.818 50.4221Z" fill="#6C63FF"/>
<path opacity="0.1" d="M200.64 64.8285H161.258C158.987 64.8285 157.145 66.6717 157.145 68.9454V75.1179C157.145 77.3916 158.987 79.2348 161.258 79.2348H200.64C202.912 79.2348 204.753 77.3916 204.753 75.1179V68.9454C204.753 66.6717 202.912 64.8285 200.64 64.8285Z" fill="#6C63FF"/>
<path opacity="0.1" d="M250.462 79.2349H211.081C208.809 79.2349 206.967 81.0781 206.967 83.3517V89.5243C206.967 91.798 208.809 93.6412 211.081 93.6412H250.462C252.734 93.6412 254.575 91.798 254.575 89.5243V83.3517C254.575 81.0781 252.734 79.2349 250.462 79.2349Z" fill="#6C63FF"/>
<path opacity="0.1" d="M305.821 72.0316H266.439C264.167 72.0316 262.326 73.8748 262.326 76.1485V82.3211C262.326 84.5948 264.167 86.438 266.439 86.438H305.821C308.092 86.438 309.934 84.5948 309.934 82.3211V76.1485C309.934 73.8748 308.092 72.0316 305.821 72.0316Z" fill="#6C63FF"/>
<path opacity="0.1" d="M355.643 86.438H316.261C313.989 86.438 312.148 88.2812 312.148 90.5549V96.7274C312.148 99.0011 313.989 100.844 316.261 100.844H355.643C357.914 100.844 359.756 99.0011 359.756 96.7274V90.5549C359.756 88.2812 357.914 86.438 355.643 86.438Z" fill="#6C63FF"/>
<path opacity="0.1" d="M405.465 100.844H366.083C363.812 100.844 361.97 102.688 361.97 104.961V111.134C361.97 113.407 363.812 115.251 366.083 115.251H405.465C407.737 115.251 409.578 113.407 409.578 111.134V104.961C409.578 102.688 407.737 100.844 405.465 100.844Z" fill="#6C63FF"/>
<path opacity="0.1" d="M305.821 50.4221H266.439C264.167 50.4221 262.326 52.2653 262.326 54.539V60.7116C262.326 62.9853 264.167 64.8284 266.439 64.8284H305.821C308.092 64.8284 309.934 62.9853 309.934 60.7116V54.539C309.934 52.2653 308.092 50.4221 305.821 50.4221Z" fill="#6C63FF"/>
<path opacity="0.1" d="M355.643 64.8285H316.261C313.989 64.8285 312.148 66.6717 312.148 68.9454V75.1179C312.148 77.3916 313.989 79.2348 316.261 79.2348H355.643C357.914 79.2348 359.756 77.3916 359.756 75.1179V68.9454C359.756 66.6717 357.914 64.8285 355.643 64.8285Z" fill="#6C63FF"/>
<path opacity="0.1" d="M405.465 79.2349H366.083C363.812 79.2349 361.97 81.0781 361.97 83.3517V89.5243C361.97 91.798 363.812 93.6412 366.083 93.6412H405.465C407.737 93.6412 409.578 91.798 409.578 89.5243V83.3517C409.578 81.0781 407.737 79.2349 405.465 79.2349Z" fill="#6C63FF"/>
<path opacity="0.1" d="M150.818 21.6095H111.436C109.164 21.6095 107.323 23.4527 107.323 25.7264V31.8989C107.323 34.1726 109.164 36.0158 111.436 36.0158H150.818C153.089 36.0158 154.931 34.1726 154.931 31.8989V25.7264C154.931 23.4527 153.089 21.6095 150.818 21.6095Z" fill="#6C63FF"/>
<path opacity="0.1" d="M200.64 36.0159H161.258C158.987 36.0159 157.145 37.8591 157.145 40.1328V46.3053C157.145 48.579 158.987 50.4222 161.258 50.4222H200.64C202.912 50.4222 204.753 48.579 204.753 46.3053V40.1328C204.753 37.8591 202.912 36.0159 200.64 36.0159Z" fill="#6C63FF"/>
<path opacity="0.1" d="M250.462 50.4221H211.081C208.809 50.4221 206.967 52.2653 206.967 54.539V60.7116C206.967 62.9853 208.809 64.8284 211.081 64.8284H250.462C252.734 64.8284 254.575 62.9853 254.575 60.7116V54.539C254.575 52.2653 252.734 50.4221 250.462 50.4221Z" fill="#6C63FF"/>
<path opacity="0.1" d="M150.818 0H111.436C109.164 0 107.323 1.84319 107.323 4.11689V10.2894C107.323 12.5631 109.164 14.4063 111.436 14.4063H150.818C153.089 14.4063 154.931 12.5631 154.931 10.2894V4.11689C154.931 1.84319 153.089 0 150.818 0Z" fill="#6C63FF"/>
<path opacity="0.1" d="M200.64 14.4064H161.258C158.987 14.4064 157.145 16.2496 157.145 18.5233V24.6958C157.145 26.9695 158.987 28.8127 161.258 28.8127H200.64C202.912 28.8127 204.753 26.9695 204.753 24.6958V18.5233C204.753 16.2496 202.912 14.4064 200.64 14.4064Z" fill="#6C63FF"/>
<path opacity="0.1" d="M250.462 28.8126H211.081C208.809 28.8126 206.967 30.6558 206.967 32.9295V39.1021C206.967 41.3758 208.809 43.219 211.081 43.219H250.462C252.734 43.219 254.575 41.3758 254.575 39.1021V32.9295C254.575 30.6558 252.734 28.8126 250.462 28.8126Z" fill="#6C63FF"/>
<path opacity="0.1" d="M305.821 21.6095H266.439C264.167 21.6095 262.326 23.4527 262.326 25.7264V31.8989C262.326 34.1726 264.167 36.0158 266.439 36.0158H305.821C308.092 36.0158 309.934 34.1726 309.934 31.8989V25.7264C309.934 23.4527 308.092 21.6095 305.821 21.6095Z" fill="#6C63FF"/>
<path opacity="0.1" d="M355.643 36.0159H316.261C313.989 36.0159 312.148 37.8591 312.148 40.1328V46.3053C312.148 48.579 313.989 50.4222 316.261 50.4222H355.643C357.914 50.4222 359.756 48.579 359.756 46.3053V40.1328C359.756 37.8591 357.914 36.0159 355.643 36.0159Z" fill="#6C63FF"/>
<path opacity="0.1" d="M405.465 50.4221H366.083C363.812 50.4221 361.97 52.2653 361.97 54.539V60.7116C361.97 62.9853 363.812 64.8284 366.083 64.8284H405.465C407.737 64.8284 409.578 62.9853 409.578 60.7116V54.539C409.578 52.2653 407.737 50.4221 405.465 50.4221Z" fill="#6C63FF"/>
<path opacity="0.1" d="M305.821 0H266.439C264.167 0 262.326 1.84319 262.326 4.11689V10.2894C262.326 12.5631 264.167 14.4063 266.439 14.4063H305.821C308.092 14.4063 309.934 12.5631 309.934 10.2894V4.11689C309.934 1.84319 308.092 0 305.821 0Z" fill="#6C63FF"/>
<path opacity="0.1" d="M355.643 14.4064H316.261C313.989 14.4064 312.148 16.2496 312.148 18.5233V24.6958C312.148 26.9695 313.989 28.8127 316.261 28.8127H355.643C357.914 28.8127 359.756 26.9695 359.756 24.6958V18.5233C359.756 16.2496 357.914 14.4064 355.643 14.4064Z" fill="#6C63FF"/>
<path opacity="0.1" d="M405.465 28.8126H366.083C363.812 28.8126 361.97 30.6558 361.97 32.9295V39.1021C361.97 41.3758 363.812 43.219 366.083 43.219H405.465C407.737 43.219 409.578 41.3758 409.578 39.1021V32.9295C409.578 30.6558 407.737 28.8126 405.465 28.8126Z" fill="#6C63FF"/>
<path opacity="0.1" d="M150.818 328.575H111.436C109.164 328.575 107.323 330.418 107.323 332.692V338.865C107.323 341.138 109.164 342.982 111.436 342.982H150.818C153.089 342.982 154.931 341.138 154.931 338.865V332.692C154.931 330.418 153.089 328.575 150.818 328.575Z" fill="#6C63FF"/>
<path opacity="0.1" d="M200.64 342.981H161.258C158.987 342.981 157.145 344.825 157.145 347.098V353.271C157.145 355.545 158.987 357.388 161.258 357.388H200.64C202.912 357.388 204.753 355.545 204.753 353.271V347.098C204.753 344.825 202.912 342.981 200.64 342.981Z" fill="#6C63FF"/>
<path opacity="0.1" d="M250.462 357.388H211.081C208.809 357.388 206.967 359.231 206.967 361.505V367.677C206.967 369.951 208.809 371.794 211.081 371.794H250.462C252.734 371.794 254.575 369.951 254.575 367.677V361.505C254.575 359.231 252.734 357.388 250.462 357.388Z" fill="#2C278A" fill-opacity="0.69"/>
<path opacity="0.1" d="M150.818 306.966H111.436C109.164 306.966 107.323 308.809 107.323 311.083V317.255C107.323 319.529 109.164 321.372 111.436 321.372H150.818C153.089 321.372 154.931 319.529 154.931 317.255V311.083C154.931 308.809 153.089 306.966 150.818 306.966Z" fill="#2C278A" fill-opacity="0.69"/>
<path opacity="0.1" d="M200.64 321.372H161.258C158.987 321.372 157.145 323.215 157.145 325.489V331.662C157.145 333.935 158.987 335.778 161.258 335.778H200.64C202.912 335.778 204.753 333.935 204.753 331.662V325.489C204.753 323.215 202.912 321.372 200.64 321.372Z" fill="#2C278A" fill-opacity="0.69"/>
<path opacity="0.1" d="M250.462 335.778H211.081C208.809 335.778 206.967 337.622 206.967 339.895V346.068C206.967 348.341 208.809 350.185 211.081 350.185H250.462C252.734 350.185 254.575 348.341 254.575 346.068V339.895C254.575 337.622 252.734 335.778 250.462 335.778Z" fill="#2C278A" fill-opacity="0.69"/>
<path opacity="0.1" d="M305.821 328.575H266.439C264.167 328.575 262.326 330.418 262.326 332.692V338.865C262.326 341.138 264.167 342.982 266.439 342.982H305.821C308.092 342.982 309.934 341.138 309.934 338.865V332.692C309.934 330.418 308.092 328.575 305.821 328.575Z" fill="#2C278A" fill-opacity="0.69"/>
<path opacity="0.1" d="M355.643 342.981H316.261C313.989 342.981 312.148 344.825 312.148 347.098V353.271C312.148 355.545 313.989 357.388 316.261 357.388H355.643C357.914 357.388 359.756 355.545 359.756 353.271V347.098C359.756 344.825 357.914 342.981 355.643 342.981Z" fill="#2C278A" fill-opacity="0.69"/>
<path opacity="0.1" d="M405.465 357.388H366.083C363.812 357.388 361.97 359.231 361.97 361.505V367.677C361.97 369.951 363.812 371.794 366.083 371.794H405.465C407.737 371.794 409.578 369.951 409.578 367.677V361.505C409.578 359.231 407.737 357.388 405.465 357.388Z" fill="#2C278A" fill-opacity="0.69"/>
<path opacity="0.1" d="M305.821 306.966H266.439C264.167 306.966 262.326 308.809 262.326 311.083V317.255C262.326 319.529 264.167 321.372 266.439 321.372H305.821C308.092 321.372 309.934 319.529 309.934 317.255V311.083C309.934 308.809 308.092 306.966 305.821 306.966Z" fill="#2C278A" fill-opacity="0.69"/>
<path opacity="0.1" d="M355.643 321.372H316.261C313.989 321.372 312.148 323.215 312.148 325.489V331.662C312.148 333.935 313.989 335.778 316.261 335.778H355.643C357.914 335.778 359.756 333.935 359.756 331.662V325.489C359.756 323.215 357.914 321.372 355.643 321.372Z" fill="#2C278A" fill-opacity="0.69"/>
<path opacity="0.1" d="M405.465 335.778H366.083C363.812 335.778 361.97 337.622 361.97 339.895V346.068C361.97 348.341 363.812 350.185 366.083 350.185H405.465C407.737 350.185 409.578 348.341 409.578 346.068V339.895C409.578 337.622 407.737 335.778 405.465 335.778Z" fill="#2C278A" fill-opacity="0.69"/>
<path opacity="0.1" d="M150.818 278.153H111.436C109.164 278.153 107.323 279.996 107.323 282.27V288.443C107.323 290.716 109.164 292.559 111.436 292.559H150.818C153.089 292.559 154.931 290.716 154.931 288.443V282.27C154.931 279.996 153.089 278.153 150.818 278.153Z" fill="#2C278A" fill-opacity="0.69"/>
<path opacity="0.1" d="M200.64 292.559H161.258C158.987 292.559 157.145 294.403 157.145 296.676V302.849C157.145 305.122 158.987 306.966 161.258 306.966H200.64C202.912 306.966 204.753 305.122 204.753 302.849V296.676C204.753 294.403 202.912 292.559 200.64 292.559Z" fill="#2C278A" fill-opacity="0.69"/>
<path opacity="0.1" d="M250.462 306.966H211.081C208.809 306.966 206.967 308.809 206.967 311.083V317.255C206.967 319.529 208.809 321.372 211.081 321.372H250.462C252.734 321.372 254.575 319.529 254.575 317.255V311.083C254.575 308.809 252.734 306.966 250.462 306.966Z" fill="#2C278A" fill-opacity="0.69"/>
<path opacity="0.1" d="M150.818 256.543H111.436C109.164 256.543 107.323 258.387 107.323 260.66V266.833C107.323 269.107 109.164 270.95 111.436 270.95H150.818C153.089 270.95 154.931 269.107 154.931 266.833V260.66C154.931 258.387 153.089 256.543 150.818 256.543Z" fill="#2C278A" fill-opacity="0.69"/>
<path opacity="0.1" d="M200.64 270.95H161.258C158.987 270.95 157.145 272.793 157.145 275.067V281.239C157.145 283.513 158.987 285.356 161.258 285.356H200.64C202.912 285.356 204.753 283.513 204.753 281.239V275.067C204.753 272.793 202.912 270.95 200.64 270.95Z" fill="#2C278A" fill-opacity="0.69"/>
<path opacity="0.1" d="M250.462 285.356H211.081C208.809 285.356 206.967 287.199 206.967 289.473V295.646C206.967 297.919 208.809 299.763 211.081 299.763H250.462C252.734 299.763 254.575 297.919 254.575 295.646V289.473C254.575 287.199 252.734 285.356 250.462 285.356Z" fill="#2C278A" fill-opacity="0.69"/>
<path opacity="0.1" d="M305.821 278.153H266.439C264.167 278.153 262.326 279.996 262.326 282.27V288.443C262.326 290.716 264.167 292.559 266.439 292.559H305.821C308.092 292.559 309.934 290.716 309.934 288.443V282.27C309.934 279.996 308.092 278.153 305.821 278.153Z" fill="#2C278A" fill-opacity="0.69"/>
<path opacity="0.1" d="M355.643 292.559H316.261C313.989 292.559 312.148 294.403 312.148 296.676V302.849C312.148 305.122 313.989 306.966 316.261 306.966H355.643C357.914 306.966 359.756 305.122 359.756 302.849V296.676C359.756 294.403 357.914 292.559 355.643 292.559Z" fill="#2C278A" fill-opacity="0.69"/>
<path opacity="0.1" d="M405.465 306.966H366.083C363.812 306.966 361.97 308.809 361.97 311.083V317.255C361.97 319.529 363.812 321.372 366.083 321.372H405.465C407.737 321.372 409.578 319.529 409.578 317.255V311.083C409.578 308.809 407.737 306.966 405.465 306.966Z" fill="#2C278A" fill-opacity="0.69"/>
<path opacity="0.1" d="M305.821 256.543H266.439C264.167 256.543 262.326 258.387 262.326 260.66V266.833C262.326 269.107 264.167 270.95 266.439 270.95H305.821C308.092 270.95 309.934 269.107 309.934 266.833V260.66C309.934 258.387 308.092 256.543 305.821 256.543Z" fill="#2C278A" fill-opacity="0.69"/>
<path opacity="0.1" d="M355.643 270.95H316.261C313.989 270.95 312.148 272.793 312.148 275.067V281.239C312.148 283.513 313.989 285.356 316.261 285.356H355.643C357.914 285.356 359.756 283.513 359.756 281.239V275.067C359.756 272.793 357.914 270.95 355.643 270.95Z" fill="#2C278A" fill-opacity="0.69"/>
<path opacity="0.1" d="M405.465 285.356H366.083C363.812 285.356 361.97 287.199 361.97 289.473V295.646C361.97 297.919 363.812 299.763 366.083 299.763H405.465C407.737 299.763 409.578 297.919 409.578 295.646V289.473C409.578 287.199 407.737 285.356 405.465 285.356Z" fill="#2C278A" fill-opacity="0.69"/>
<path opacity="0.1" d="M267.031 420C401.096 420 509.777 411.069 509.777 400.053C509.777 389.036 401.096 380.105 267.031 380.105C132.966 380.105 24.2856 389.036 24.2856 400.053C24.2856 411.069 132.966 420 267.031 420Z" fill="#D76DFD"/>
<path d="M46.8607 103.504C69.7513 113.433 82.9043 133.979 82.9043 133.979C82.9043 133.979 58.9398 138.412 36.0437 128.488C13.1476 118.564 0 98.0129 0 98.0129C0 98.0129 23.9645 93.5746 46.8607 103.504Z" fill="#6740AA"/>
<path d="M117.11 65.3826C124.19 53.7467 136.247 48.2058 136.247 48.2058C136.247 48.2058 136.801 61.4707 129.743 73.0734C122.685 84.676 110.6 90.2113 110.6 90.2113C110.6 90.2113 110.024 76.952 117.11 65.3826Z" fill="#6740AA"/>
<path d="M65.0624 77.8329C70.1277 95.9294 84.089 107.842 84.089 107.842C84.089 107.842 89.8407 90.4052 84.7755 72.3031C79.7102 54.201 65.7433 42.2936 65.7433 42.2936C65.7433 42.2936 59.9916 59.7308 65.0624 77.8329Z" fill="#46455B"/>
<path d="M465.374 77.0184H69.7955C67.5912 77.0184 65.8042 78.8071 65.8042 81.0134V275.266C65.8042 277.473 67.5912 279.261 69.7955 279.261H465.374C467.578 279.261 469.365 277.473 469.365 275.266V81.0134C469.365 78.8071 467.578 77.0184 465.374 77.0184Z" fill="#3F3D56"/>
<path opacity="0.1" d="M65.8042 267.071H469.365V275.266C469.365 276.326 468.945 277.342 468.196 278.091C467.448 278.84 466.432 279.261 465.374 279.261H69.7955C68.737 279.261 67.7217 278.84 66.9732 278.091C66.2247 277.342 65.8042 276.326 65.8042 275.266V267.071Z" fill="black"/>
<path d="M133.618 252.111H106.492C105.728 252.111 105.109 252.731 105.109 253.496V265.686C105.109 266.451 105.728 267.071 106.492 267.071H133.618C134.382 267.071 135.002 266.451 135.002 265.686V253.496C135.002 252.731 134.382 252.111 133.618 252.111Z" fill="#6740AA"/>
<path d="M162.681 264.855H144.413C143.801 264.855 143.306 265.351 143.306 265.963C143.306 266.575 143.801 267.071 144.413 267.071H162.681C163.292 267.071 163.788 266.575 163.788 265.963C163.788 265.351 163.292 264.855 162.681 264.855Z" fill="#6740AA"/>
<path d="M125.12 116.569C139.729 119.268 154.632 116.569 169.18 114.741L213.395 109.2C215.183 108.973 217.784 107.904 218.836 110.092C219.429 111.317 219.03 113.971 219.074 115.378C219.191 119.257 219.179 123.135 219.074 127.014C218.875 134.428 218.332 141.825 217.641 149.205C216.295 163.65 214.391 178.018 213.439 192.519C212.952 199.899 212.708 207.302 212.924 214.682C212.974 216.444 213.046 218.206 213.151 219.963C213.267 221.93 214.147 224.85 212.005 226.163C210.782 226.916 208.374 226.878 206.973 227.099C204.759 227.448 202.544 227.725 200.286 227.953C185.4 229.443 170.32 228.823 155.379 228.734L110.262 228.501L99.2571 228.44C98.2607 228.44 94.668 229.039 94.0535 227.853C93.7933 227.349 94.4853 224.988 94.6071 224.357C94.7768 223.315 94.9614 222.275 95.1606 221.237C96.445 213.951 97.9618 206.709 99.4897 199.472C102.772 183.958 106.133 168.366 107.483 152.519C108.153 144.568 107.71 136.544 108.53 128.61C108.912 124.925 109.366 116.702 114.265 116.376C118.417 116.098 122.69 116.376 126.853 116.376C127.073 116.376 127.285 116.288 127.44 116.132C127.596 115.976 127.684 115.765 127.684 115.544C127.684 115.324 127.596 115.113 127.44 114.957C127.285 114.801 127.073 114.713 126.853 114.713C122.923 114.713 118.987 114.608 115.056 114.686C112.443 114.735 110.628 115.356 109.382 117.761C106.199 123.933 106.526 132.167 106.426 138.905C106.188 155.034 103.713 170.82 100.492 186.595C98.8696 194.535 97.1203 202.448 95.5094 210.393C94.751 214.189 94.0258 217.996 93.3615 221.813C93.0515 223.631 91.4849 227.637 92.8633 229.305C94.2417 230.972 98.4821 230.075 100.381 230.086L113.589 230.163L138.899 230.307C155.252 230.402 171.66 230.862 188.007 230.38C195.813 230.147 204.061 229.825 211.662 227.958C213.926 227.404 215.017 226.362 215.105 223.947C215.238 220.201 214.629 216.339 214.552 212.577C213.998 180.384 221.554 148.64 220.779 116.437C220.73 114.248 221.554 108.729 219.163 107.405C218.089 106.806 216.694 107.133 215.565 107.266C213.406 107.516 211.252 107.82 209.093 108.075L181.054 111.577C172.092 112.685 163.135 113.882 154.156 114.902C144.651 116.01 135.052 116.669 125.58 114.902C124.534 114.708 124.085 116.309 125.137 116.503L125.12 116.569Z" fill="#6740AA"/>
<path d="M107.494 136.156L218.111 130.726C219.179 130.671 219.185 129.009 218.111 129.064L107.494 134.494C106.432 134.544 106.426 136.206 107.494 136.156Z" fill="#6740AA"/>
<path d="M141.573 122.454C141.264 122.782 141.039 123.181 140.919 123.616C140.798 124.05 140.786 124.508 140.882 124.949C140.979 125.389 141.182 125.8 141.473 126.144C141.764 126.489 142.135 126.757 142.553 126.925C144.042 127.607 145.791 127.036 147.269 126.665C149.484 126.111 151.698 125.618 153.973 125.213C158.925 124.336 163.941 123.869 168.97 123.817C171.261 123.789 173.537 123.895 175.828 123.994C177.489 124.061 179.277 124.194 180.683 123.163C182.289 121.988 182.809 119.695 181.237 118.265C179.023 116.243 174.251 117.417 171.693 117.628C162.413 118.399 153.193 119.776 144.092 121.75C143.051 121.972 143.488 123.579 144.535 123.352C150.539 122.055 156.59 121.013 162.686 120.226C165.683 119.857 168.685 119.545 171.693 119.29C173.11 119.174 174.528 119.068 175.945 118.985C176.498 118.952 177.085 118.891 177.65 118.908C179.405 118.947 179.609 118.631 178.558 120.753C177.622 122.631 177.921 122.415 176.299 122.354C175.613 122.354 174.926 122.277 174.24 122.243C172.834 122.184 171.428 122.153 170.021 122.149C167.028 122.149 164.043 122.293 161.064 122.581C158.54 122.825 156.021 123.169 153.525 123.612C151.964 123.889 150.414 124.21 148.869 124.565C148.188 124.726 147.502 124.892 146.821 125.064C146.494 125.152 146.162 125.23 145.835 125.313C144.625 125.734 143.593 125.18 142.741 123.651C143.483 122.881 142.315 121.7 141.567 122.476L141.573 122.454Z" fill="#6740AA"/>
<path d="M161.624 146.102C153.613 145.792 144.961 147.958 139.685 154.414C135.555 159.461 133.203 168.122 137.576 173.807C142.276 179.902 152.584 178.827 158.8 176.228C165.377 173.458 172.573 167.745 174.55 160.597C177.013 151.671 169.014 144.922 160.683 144.822C159.614 144.822 159.614 146.485 160.683 146.485C165.432 146.54 170.093 148.579 172.308 153.006C174.627 157.672 172.629 162.57 169.54 166.304C164.591 172.25 156.852 176.732 148.969 176.605C144.236 176.533 139.004 174.909 137.537 169.911C136.33 165.861 137.249 161.434 139.353 157.843C143.903 150.086 153.165 147.46 161.657 147.792C162.725 147.831 162.725 146.169 161.657 146.13L161.624 146.102Z" fill="#6740AA"/>
<path d="M153.669 158.414C153.327 158.288 152.959 158.25 152.599 158.303C152.239 158.357 151.898 158.502 151.608 158.723C151.319 158.944 151.09 159.235 150.943 159.569C150.796 159.902 150.736 160.268 150.768 160.631C150.934 162.792 153.314 163.401 155.102 163.274C156.647 163.141 158.452 162.57 157.909 160.636C157.809 160.294 157.637 159.977 157.404 159.708C157.171 159.438 156.882 159.222 156.558 159.074C156.063 158.877 155.526 158.81 154.997 158.88C154.792 158.88 152.916 159.567 153.713 158.741L152.406 158.569C152.551 158.713 152.663 158.886 152.732 159.078C152.8 159.27 152.826 159.475 152.805 159.678C152.808 159.822 152.848 159.964 152.921 160.089C152.995 160.214 153.1 160.317 153.225 160.389C153.351 160.461 153.493 160.499 153.637 160.5C153.782 160.5 153.924 160.463 154.051 160.392C154.241 160.313 154.449 160.288 154.652 160.32C154.856 160.353 155.046 160.441 155.202 160.576C155.358 160.711 155.473 160.886 155.534 161.083C155.596 161.279 155.602 161.489 155.551 161.689C155.506 161.881 155.531 162.082 155.62 162.258C155.709 162.434 155.858 162.572 156.039 162.649C156.22 162.726 156.423 162.736 156.611 162.678C156.799 162.62 156.961 162.497 157.068 162.332C157.621 161.334 158.291 159.351 157.461 158.309C156.907 157.605 155.839 157.816 155.174 158.226C154.764 158.516 154.383 158.845 154.034 159.207C153.364 159.8 152.927 160.077 153.176 158.941C153.591 156.874 155.562 155.228 157.361 154.403L156.143 153.466C155.505 155.868 154.363 158.106 152.794 160.032L154.211 160.62C154.171 159.859 154.366 159.104 154.771 158.459C155.175 157.813 155.768 157.308 156.47 157.012H155.656L156.088 157.722C155.927 158.769 157.527 159.218 157.688 158.159C157.898 156.791 157.034 155.012 155.435 155.683C153.525 156.481 152.534 158.669 152.573 160.62C152.573 161.285 153.514 161.8 153.995 161.212C155.756 159.072 157.041 156.58 157.765 153.904C157.804 153.745 157.795 153.579 157.741 153.425C157.686 153.271 157.588 153.136 157.459 153.036C157.329 152.937 157.173 152.878 157.01 152.866C156.848 152.853 156.685 152.889 156.542 152.968C154.883 153.718 153.482 154.94 152.512 156.481C151.836 157.589 150.989 159.317 151.676 160.592C151.788 160.796 151.94 160.975 152.122 161.12C152.305 161.265 152.514 161.372 152.738 161.436C152.962 161.499 153.196 161.517 153.427 161.489C153.658 161.462 153.881 161.388 154.084 161.273C154.596 160.97 155.063 160.597 155.473 160.165C155.678 159.982 155.905 159.667 156.176 159.611C156.42 159.445 156.409 159.539 156.138 159.905C156.134 160.479 155.967 161.04 155.656 161.523L157.173 162.16C157.309 161.643 157.294 161.097 157.127 160.588C156.96 160.08 156.65 159.63 156.234 159.295C155.817 158.959 155.313 158.751 154.781 158.696C154.249 158.641 153.713 158.741 153.237 158.985L154.488 159.705C154.514 159 154.293 158.308 153.862 157.749C153.797 157.642 153.708 157.55 153.603 157.481C153.497 157.412 153.378 157.368 153.253 157.351C153.128 157.335 153.001 157.347 152.882 157.386C152.762 157.425 152.652 157.491 152.561 157.578C151.72 158.459 151.56 159.982 152.617 160.797C153.408 161.401 153.796 160.797 154.665 160.658C157.616 160.276 155.894 161.606 154.853 161.65C154.388 161.7 153.917 161.666 153.464 161.55C152.309 161.159 152.237 160.655 153.248 160.038C154.239 160.442 154.665 158.835 153.691 158.437L153.669 158.414Z" fill="#6740AA"/>
<path d="M152.335 161.451C153.015 163.667 150.203 164.398 148.869 165.163C147.933 165.689 147.117 166.404 146.472 167.263C145.077 169.136 144.557 171.519 144.097 173.763C143.887 174.81 145.487 175.253 145.703 174.206C145.956 172.557 146.427 170.949 147.103 169.424C148.1 167.44 149.528 166.775 151.388 165.756C153.248 164.736 154.593 163.157 153.934 161.007C153.624 159.988 152.019 160.426 152.335 161.451Z" fill="#6740AA"/>
<path d="M155.102 160.337C154.706 160.392 154.345 160.593 154.089 160.9C153.833 161.207 153.701 161.599 153.718 161.999C153.718 162.659 154.156 163.08 154.455 163.606C155.164 164.683 155.706 165.862 156.06 167.102C156.326 168.294 156.586 170.427 155.966 171.535C154.82 173.591 152.75 173.197 150.984 173.197C149.323 173.197 148.039 173.751 148.094 171.435C148.127 170.133 149.035 168.814 149.755 167.789L148.238 167.59C148.558 169.282 148.727 170.999 148.742 172.721C148.742 173.491 149.921 173.918 150.286 173.136C151.176 171.262 151.883 169.307 152.395 167.296L150.762 167.075L151.05 171.286C151.055 171.465 151.117 171.639 151.228 171.78C151.339 171.922 151.493 172.023 151.666 172.071C151.839 172.118 152.023 172.108 152.191 172.043C152.358 171.977 152.5 171.859 152.595 171.707C152.789 171.493 152.931 171.237 153.01 170.959C153.065 170.698 152.556 168.942 152.351 169.568L153.979 169.79L154.095 165.789L152.434 166.011C152.785 167.139 152.891 168.329 152.744 169.502C152.639 170.427 154.195 170.637 154.405 169.723L155.446 164.349L153.929 164.542C154.289 165.286 154.389 166.129 154.211 166.936C154.089 168 155.75 167.989 155.872 166.936C156.013 165.833 155.836 164.712 155.363 163.706C155.278 163.567 155.156 163.456 155.01 163.386C154.863 163.315 154.7 163.289 154.539 163.31C154.378 163.332 154.227 163.399 154.104 163.505C153.981 163.61 153.891 163.749 153.846 163.905L152.8 169.28L154.433 169.502C154.599 168.181 154.472 166.839 154.062 165.573C154.006 165.382 153.884 165.218 153.718 165.109C153.552 165.001 153.352 164.955 153.155 164.981C152.958 165.007 152.777 165.103 152.645 165.252C152.513 165.4 152.438 165.59 152.434 165.789L152.318 169.79C152.318 170.759 153.663 170.898 153.951 170.011L154.04 169.74C154.078 169.598 154.079 169.449 154.042 169.307C154.005 169.165 153.932 169.036 153.829 168.931C152.108 167.058 151.759 170.039 151.161 170.865L152.711 171.286L152.423 167.075C152.362 166.177 151.034 165.9 150.79 166.853C150.322 168.727 149.673 170.551 148.852 172.3L150.403 172.721C150.385 170.85 150.199 168.984 149.849 167.147C149.705 166.382 148.703 166.415 148.332 166.947C147.225 168.543 145.31 172.028 146.788 173.94C148.077 175.602 152.135 174.959 153.868 174.854C156.603 174.699 157.594 172.965 157.892 170.383C158.035 169.146 157.966 167.894 157.688 166.681C157.538 166.027 156.027 161.883 155.573 161.966C156.625 161.772 156.176 160.165 155.13 160.359L155.102 160.337Z" fill="#6C63FF"/>
<path d="M151.886 164.072L147.352 170.061L148.786 170.898L152.108 166.088L150.591 165.446L148.936 171.768C148.891 171.96 148.915 172.161 149.005 172.337C149.094 172.513 149.243 172.651 149.424 172.728C149.605 172.805 149.808 172.815 149.996 172.757C150.184 172.699 150.346 172.576 150.452 172.411C151.206 171.161 152.051 169.971 152.982 168.848L151.598 168.039C151.227 169.47 150.51 170.789 149.511 171.879L150.901 172.688C150.986 171.922 151.189 171.174 151.504 170.471C151.93 169.513 150.58 168.665 150.07 169.629C149.602 170.507 149.067 171.348 148.471 172.145L149.987 172.344L150.325 170.765L148.808 170.566L149.052 171.951C149.092 172.09 149.167 172.217 149.271 172.318C149.374 172.419 149.503 172.492 149.643 172.529C149.783 172.566 149.93 172.566 150.07 172.528C150.21 172.491 150.338 172.418 150.441 172.316C151.845 170.862 152.971 169.163 153.763 167.302H152.335C152.71 167.995 152.973 168.743 153.115 169.518C153.314 170.516 154.637 170.144 154.743 169.297C154.98 167.441 155.102 165.572 155.108 163.7H153.447V167.186C153.447 168.089 154.925 168.355 155.08 167.407C155.19 166.567 155.467 165.756 155.894 165.025H154.438C154.789 165.591 154.98 166.242 154.992 166.909C154.992 167.129 155.079 167.34 155.235 167.496C155.391 167.652 155.602 167.74 155.822 167.74C156.042 167.74 156.254 167.652 156.409 167.496C156.565 167.34 156.652 167.129 156.652 166.909L156.863 165.8H155.263C155.424 166.781 156.032 172.305 153.868 171.657C153.503 171.568 153.397 171.591 153.552 171.718L154.045 170.665L155.202 168.211L153.652 167.79C153.752 168.931 153.857 170.56 153.17 171.535C152.617 172.328 150.912 172.643 150.043 172.178C149.469 171.769 148.979 171.253 148.598 170.66L147.463 171.768C148.382 172.438 149.871 174.084 151.056 174.178C151.958 174.25 152.717 173.502 153.309 172.904C154.217 171.964 154.926 170.849 155.391 169.627C155.856 168.405 156.069 167.101 156.016 165.795C156.016 165.574 155.928 165.363 155.773 165.207C155.617 165.051 155.406 164.964 155.185 164.964C154.965 164.964 154.754 165.051 154.598 165.207C154.443 165.363 154.355 165.574 154.355 165.795V167.69C154.355 167.91 154.443 168.122 154.598 168.277C154.754 168.433 154.965 168.521 155.185 168.521C155.406 168.521 155.617 168.433 155.773 168.277C155.928 168.122 156.016 167.91 156.016 167.69V163.041C156.016 162.821 155.928 162.609 155.773 162.453C155.617 162.297 155.406 162.21 155.185 162.21C154.965 162.21 154.754 162.297 154.598 162.453C154.443 162.609 154.355 162.821 154.355 163.041C154.352 164.155 154.256 165.267 154.067 166.366L155.7 166.587C155.57 165.263 155.509 163.933 155.518 162.603C155.515 162.404 155.441 162.213 155.309 162.063C155.177 161.914 154.996 161.817 154.799 161.791C154.602 161.764 154.402 161.809 154.235 161.917C154.068 162.026 153.946 162.19 153.89 162.382C153.641 163.44 153.337 164.482 153.043 165.518L154.56 165.318L154.444 164.875C154.366 163.817 152.705 163.811 152.783 164.875C152.801 165.324 152.918 165.763 153.126 166.161C153.447 166.837 154.449 166.598 154.643 165.961C154.959 164.919 155.241 163.878 155.49 162.825L153.857 162.603C153.849 163.933 153.91 165.263 154.04 166.587C154.123 167.44 155.495 167.806 155.667 166.809C155.888 165.557 156.005 164.29 156.016 163.019H154.355V167.668H156.016V165.773H154.355C154.453 167.863 153.727 169.908 152.335 171.469C152.119 171.714 151.886 171.944 151.637 172.156C151.244 172.533 150.884 172.477 150.569 171.984C149.783 171.657 148.969 170.815 148.282 170.322C147.596 169.829 146.655 170.804 147.142 171.458C148.415 173.153 150.314 175.043 152.678 174.228C155.163 173.347 155.501 169.978 155.313 167.762C155.252 167.025 154.15 166.526 153.768 167.346C153.215 168.515 152.661 169.679 152.108 170.854C151.914 171.264 151.554 171.829 151.609 172.316C151.792 173.563 153.303 173.358 154.233 173.286C157.837 173.015 157.267 167.9 156.852 165.329C156.713 164.476 155.473 164.609 155.252 165.329C155.076 165.836 154.984 166.367 154.981 166.903H156.641C156.581 165.95 156.315 165.022 155.861 164.182C155.787 164.058 155.682 163.956 155.556 163.885C155.43 163.813 155.288 163.776 155.144 163.776C155 163.776 154.858 163.813 154.732 163.885C154.606 163.956 154.501 164.058 154.427 164.182C153.932 165.038 153.598 165.977 153.442 166.953L155.102 167.174V163.689C155.102 163.469 155.015 163.257 154.859 163.102C154.704 162.946 154.492 162.858 154.272 162.858C154.052 162.858 153.841 162.946 153.685 163.102C153.529 163.257 153.442 163.469 153.442 163.689C153.436 165.56 153.314 167.43 153.076 169.286L154.709 169.064C154.522 168.158 154.203 167.285 153.763 166.471C153.689 166.347 153.583 166.244 153.458 166.173C153.332 166.102 153.19 166.064 153.046 166.064C152.902 166.064 152.76 166.102 152.634 166.173C152.508 166.244 152.403 166.347 152.329 166.471C151.607 168.206 150.569 169.792 149.268 171.147L150.657 171.513L150.414 170.128C150.286 169.391 149.246 169.369 148.897 169.928C148.622 170.345 148.435 170.814 148.348 171.306C148.262 171.797 148.277 172.302 148.393 172.787C148.531 173.574 149.528 173.491 149.91 172.987C150.506 172.192 151.041 171.353 151.51 170.477L150.076 169.635C149.693 170.463 149.432 171.342 149.301 172.244C149.201 172.976 150.07 173.74 150.69 173.053C151.88 171.75 152.742 170.181 153.204 168.477C153.408 167.723 152.368 167.008 151.814 167.668C150.796 168.889 149.87 170.186 149.046 171.546L150.563 172.189L152.252 165.889C152.296 165.697 152.272 165.496 152.182 165.32C152.093 165.144 151.945 165.006 151.763 164.929C151.582 164.852 151.379 164.842 151.191 164.9C151.003 164.958 150.841 165.081 150.735 165.246L147.413 170.061C146.793 170.953 148.216 171.724 148.847 170.898L153.364 164.914C154.006 164.061 152.567 163.252 151.93 164.072H151.886Z" fill="#6740AA"/>
<path d="M222.512 184.069C229.155 180.002 234.436 173.934 240.304 168.859C246.67 163.357 253.352 158.231 260.233 153.378C273.597 143.958 287.63 135.53 301.652 127.125C301.834 127.01 301.964 126.829 302.015 126.62C302.066 126.41 302.034 126.19 301.925 126.004C301.817 125.818 301.641 125.681 301.434 125.623C301.227 125.564 301.006 125.588 300.816 125.69C286.794 134.095 272.755 142.506 259.392 151.943C253.086 156.375 246.931 161.074 241.029 166.061C234.608 171.491 228.889 178.251 221.654 182.634C220.741 183.188 221.576 184.628 222.49 184.069H222.512Z" fill="#6740AA"/>
<path d="M323.092 101.315C315.896 102.047 308.146 103.881 303.717 110.181C299.892 115.6 299.975 125.053 303.567 130.616C307.647 136.938 315.984 137.165 322.461 135.12C328.938 133.076 335.642 129.491 335.581 121.745C335.548 117.589 334.048 113.262 332.392 109.494C330.964 106.241 328.434 103.399 324.603 103.759C323.546 103.859 323.535 105.521 324.603 105.421C329.735 104.945 331.385 111.045 332.603 114.896C333.71 118.492 334.734 122.748 332.996 126.321C331.258 129.895 327.067 131.718 323.485 133.026C319.61 134.433 315.353 135.292 311.306 134.134C303.291 131.89 301.076 121.722 303.385 114.508C306.042 106.197 315.453 103.753 323.12 102.978C324.172 102.872 324.183 101.21 323.12 101.315H323.092Z" fill="#6740AA"/>
<path d="M334.164 165.59C326.967 166.321 319.217 168.155 314.789 174.455C310.963 179.874 311.046 189.327 314.639 194.89C318.719 201.212 327.056 201.439 333.533 199.395C340.01 197.35 346.714 193.765 346.653 186.019C346.62 181.863 345.119 177.536 343.464 173.768C342.036 170.516 339.506 167.673 335.675 168.033C334.618 168.133 334.607 169.795 335.675 169.696C340.807 169.219 342.457 175.32 343.674 179.17C344.782 182.767 345.806 187.022 344.067 190.596C342.329 194.17 338.139 195.993 334.557 197.3C330.682 198.708 326.425 199.567 322.378 198.408C314.362 196.164 312.148 185.997 314.456 178.783C317.114 170.471 326.524 168.028 334.192 167.252C335.243 167.147 335.254 165.484 334.192 165.59H334.164Z" fill="#6740AA"/>
<path d="M312.236 117.5L317.479 123.484C317.583 123.585 317.711 123.656 317.85 123.692C317.99 123.729 318.136 123.728 318.276 123.691C318.415 123.653 318.542 123.58 318.645 123.479C318.748 123.378 318.823 123.252 318.863 123.113C319.97 120.199 319.76 117.179 320.02 114.115C320.307 110.948 321.101 107.848 322.373 104.934C324.927 99.0227 329.257 94.0551 334.762 90.7211C335.675 90.167 334.839 88.7264 333.926 89.286C328.498 92.5574 324.144 97.3452 321.398 103.061C320.054 105.842 319.122 108.804 318.63 111.854C318.077 115.45 318.58 119.218 317.252 122.67L318.641 122.299L313.427 116.326C312.718 115.522 311.55 116.702 312.253 117.5H312.236Z" fill="#6740AA"/>
<path d="M225.186 190.546C253.74 189.674 282.301 189.489 310.869 189.992C311.938 189.992 311.938 188.329 310.869 188.329C282.308 187.82 253.747 188.004 225.186 188.884C224.117 188.917 224.112 190.579 225.186 190.546Z" fill="#6740AA"/>
<path d="M316.837 174.156C326.598 177.991 335.987 182.713 344.887 188.263C345.795 188.817 346.631 187.393 345.723 186.828C336.706 181.209 327.192 176.431 317.302 172.555C316.311 172.161 315.879 173.768 316.864 174.156H316.837Z" fill="#6740AA"/>
<path d="M334.562 166.626C324.664 178.175 318.93 192.719 318.282 207.922C318.237 208.992 319.898 208.992 319.942 207.922C320.571 193.156 326.133 179.028 335.736 167.8C336.428 166.992 335.26 165.811 334.562 166.626Z" fill="#6740AA"/>
<path d="M113.158 184.512L175.031 183.703L182.145 183.609C183.424 183.609 184.702 183.564 185.981 183.559C187.78 183.559 188.993 185.055 188.959 186.883C188.876 190.762 186.441 190.623 183.252 190.762L175.563 191.111L144.252 192.491C138.644 192.74 133.031 193.045 127.423 193.239C122.364 193.394 112.742 191.743 114.99 184.373C115.3 183.348 113.7 182.911 113.385 183.93C112.277 187.554 114.237 191.233 117.392 193.134C121.871 195.826 127.772 194.912 132.716 194.691L171.156 192.945L180.49 192.53C182.881 192.419 186.208 192.906 188.406 191.793C190.986 190.491 191.44 185.321 189.812 183.143C188.976 182.035 187.802 181.935 186.491 181.885C183.047 181.753 179.543 181.98 176.094 182.024L156.929 182.279L113.135 182.833C112.067 182.833 112.067 184.495 113.135 184.495L113.158 184.512Z" fill="#6740AA"/>
<path d="M363.144 388.14C361.749 389.015 360.155 389.509 358.715 390.279C357.276 391.049 355.875 392.207 355.466 393.803C355.313 394.298 355.338 394.831 355.538 395.31C355.896 395.888 356.444 396.323 357.088 396.54C360.012 397.84 363.17 398.529 366.369 398.565C369.568 398.601 372.741 397.984 375.694 396.751C376.733 396.251 377.805 395.825 378.904 395.476C380.258 395.2 381.636 395.059 383.017 395.055C384.47 394.97 385.914 394.785 387.341 394.501C388.058 394.421 388.738 394.138 389.301 393.686C389.814 393.094 390.123 392.352 390.181 391.57C390.836 387.253 389.848 382.847 387.413 379.225C387.106 378.717 386.695 378.281 386.206 377.945C385.61 377.636 384.955 377.461 384.285 377.429C381.517 377.091 378.616 376.471 375.821 376.404C373.817 376.36 372.809 377.313 371.392 378.693C368.464 381.624 366.753 385.885 363.144 388.14Z" fill="#323444"/>
<path d="M403.937 387.73C403.937 390.445 404.264 393.321 405.908 395.487C406.66 396.424 407.571 397.221 408.598 397.842C412.075 400.058 416.681 400.873 420.345 398.994C420.937 398.728 421.444 398.302 421.807 397.764C422.361 396.8 422.067 395.598 421.757 394.534L416.454 376.138C413.027 376.665 407.99 377.036 404.945 378.776C402.736 380.033 403.937 385.303 403.937 387.73Z" fill="#323444"/>
<path d="M360.033 274.457C359.712 275.471 358.549 275.942 357.912 276.796C357.165 277.798 357.243 279.189 357.514 280.408C357.849 282.206 358.692 283.869 359.944 285.201C360.579 285.861 361.363 286.359 362.23 286.654C363.096 286.949 364.021 287.032 364.926 286.897C366.709 286.559 368.248 284.979 368.309 283.168C368.277 282.344 368.1 281.531 367.788 280.768L364.013 269.842C363.998 269.764 363.966 269.691 363.92 269.627C363.874 269.563 363.815 269.51 363.747 269.47C363.605 269.439 363.456 269.465 363.332 269.543C362.441 269.964 360.653 270.407 360.132 271.332C359.612 272.258 360.409 273.454 360.033 274.457Z" fill="#CDB883"/>
<path d="M358.267 273.909C359.645 273.693 360.852 272.884 362.142 272.352C363.432 271.82 365.048 271.615 366.133 272.501C366.443 272.756 366.742 273.105 367.146 273.1C366.597 270.39 365.765 267.746 364.666 265.21C364.628 265.088 364.552 264.982 364.45 264.905C364.299 264.844 364.131 264.844 363.98 264.905L360.254 265.88C358.876 266.24 358.715 266.129 358.82 267.487C358.848 268.091 359.158 273.909 358.267 273.909Z" fill="#323444"/>
<path d="M357.857 195.006C357.304 195.86 357.304 196.923 357.304 197.926C357.304 202.83 357.353 207.761 358.079 212.615C358.25 213.779 358.466 214.942 358.577 216.117C358.702 217.752 358.728 219.394 358.654 221.032L358.101 242.364C358.034 244.974 357.901 247.778 356.29 249.828C355.802 250.515 355.573 251.353 355.643 252.194C356.064 257.546 356.949 262.855 357.829 268.146C359.247 267.506 360.795 267.211 362.348 267.286C363.901 267.36 365.414 267.801 366.764 268.573C369.557 259.783 371.102 250.643 371.353 241.422C371.481 236.884 371.287 232.319 371.985 227.836C373.153 220.289 372.676 212.549 371.818 204.958C371.547 202.553 370.971 200.076 369.433 198.214C367.976 196.586 366.035 195.467 363.897 195.023C361.848 194.485 360.016 195.04 357.857 195.006Z" fill="#C42824"/>
<path opacity="0.1" d="M357.857 195.006C357.304 195.86 357.304 196.923 357.304 197.926C357.304 202.83 357.353 207.761 358.079 212.615C358.25 213.779 358.466 214.942 358.577 216.117C358.702 217.752 358.728 219.394 358.654 221.032L358.101 242.364C358.034 244.974 357.901 247.778 356.29 249.828C355.802 250.515 355.573 251.353 355.643 252.194C356.064 257.546 356.949 262.855 357.829 268.146C359.247 267.506 360.795 267.211 362.348 267.286C363.901 267.36 365.414 267.801 366.764 268.573C369.557 259.783 371.102 250.643 371.353 241.422C371.481 236.884 371.287 232.319 371.985 227.836C373.153 220.289 372.676 212.549 371.818 204.958C371.547 202.553 370.971 200.076 369.433 198.214C367.976 196.586 366.035 195.467 363.897 195.023C361.848 194.485 360.016 195.04 357.857 195.006Z" fill="#C02F2D"/>
<path d="M364.622 256.871C360.909 275.914 362.936 295.633 370.446 313.521C371.094 314.845 371.549 316.256 371.796 317.71C372.101 320.425 370.85 323.034 370.136 325.661C368.475 331.634 369.433 337.995 370.496 344.106C370.938 346.655 371.394 349.202 371.863 351.747C372.322 354.23 372.765 356.928 371.614 359.178C372.605 363.311 373.191 367.406 374.182 371.539C374.287 371.866 374.32 372.213 374.276 372.553C374.077 373.094 373.725 373.566 373.263 373.911C372.525 374.66 371.994 375.59 371.723 376.607C371.452 377.624 371.451 378.694 371.719 379.712C374.249 377.895 377.775 378.532 380.665 379.712C383.554 380.892 386.4 382.483 389.522 382.483C389.068 378.815 388.631 374.964 389.982 371.523C390.768 369.528 392.152 367.644 392.113 365.511C392.074 363.599 390.906 361.893 390.624 360.003C390.519 358.828 390.563 357.644 390.757 356.479C391.498 349.697 390.657 342.849 389.815 336.078C389.72 334.742 389.406 333.432 388.885 332.199C388.492 331.401 387.906 330.637 387.917 329.744C387.917 328.708 388.753 327.866 389.063 326.88C389.616 325.062 388.598 322.591 390.131 321.466C394.172 318.496 392.622 311.404 392.534 306.39C392.463 302.064 392.279 297.742 391.98 293.424C394.524 300.585 395.565 308.194 395.036 315.776C394.859 318.258 394.532 320.868 395.501 323.162C396.243 324.924 397.715 326.376 398.114 328.243C398.363 329.395 398.186 330.587 398.241 331.761C398.296 332.936 398.695 334.216 399.708 334.809C399.785 340.15 400.262 345.863 400.345 351.204C400.291 353.935 400.513 356.664 401.009 359.349C401.257 360.204 401.395 361.086 401.419 361.976C401.294 363.091 400.999 364.18 400.544 365.206C399.579 368.066 399.327 371.118 399.809 374.097C400.292 377.076 401.494 379.892 403.312 382.3C404.618 379.978 407.342 378.748 409.999 378.554C412.656 378.36 415.28 379.031 417.854 379.707C417.461 376.469 418.104 373.19 419.692 370.343C420.118 369.701 420.445 368.998 420.661 368.259C420.96 366.852 420.262 365.45 419.886 364.059C419.272 361.843 419.487 359.455 419.631 357.139C420.114 349.382 419.771 341.595 418.607 333.911C418.428 332.398 418.073 330.91 417.55 329.478C417.351 328.969 417.107 328.481 416.941 327.966C416.68 327.041 416.531 326.089 416.498 325.129L415.861 316.263C415.413 310.052 417.45 303.918 418.873 297.857C419.51 295.142 420.202 292.432 420.628 289.673C421.209 285.916 421.303 282.076 422.156 278.369C422.92 275.045 424.298 271.803 424.586 268.396C425.029 263.115 422.837 258.012 420.711 253.169C419.825 251.174 416.476 251.374 414.323 251.019C399.049 248.509 382.962 248.493 368.558 254.15C367.068 254.768 365.727 255.695 364.622 256.871Z" fill="#3C354C"/>
<path d="M375.633 158.525L377.327 165.119C377.787 166.631 378.042 168.198 378.085 169.779C378.103 170.355 377.975 170.927 377.714 171.441C377.435 171.863 377.078 172.228 376.662 172.516C375.505 173.397 374.703 175.453 373.38 176.062C374.061 177.248 375.002 176.478 376.231 177.07C378.395 178.123 380.377 179.636 382.724 180.157C384.938 180.644 387.263 180.184 389.461 179.603C392.578 178.755 395.678 177.586 398.186 175.541C400.693 173.497 402.122 171.69 402.111 168.46C399.343 168.787 396.879 165.989 395.656 163.473C395.232 162.517 394.919 161.515 394.726 160.487L393.242 153.954C391.626 154.308 390.308 155.467 388.764 156.07C387.219 156.674 385.392 156.73 383.676 156.807C380.63 156.946 377.601 157.339 374.62 157.982C374.21 158.065 373.695 158.326 373.795 158.725" fill="#CDB883"/>
<path opacity="0.1" d="M375.633 158.525L377.327 165.119C377.787 166.631 378.042 168.198 378.085 169.779C378.103 170.355 377.975 170.927 377.714 171.441C377.435 171.863 377.078 172.228 376.662 172.516C375.505 173.397 374.703 175.453 373.38 176.062C374.061 177.248 375.002 176.478 376.231 177.07C378.395 178.123 380.377 179.636 382.724 180.157C384.938 180.644 387.263 180.184 389.461 179.603C392.578 178.755 395.678 177.586 398.186 175.541C400.693 173.497 402.122 171.69 402.111 168.46C399.343 168.787 396.879 165.989 395.656 163.473C395.232 162.517 394.919 161.515 394.726 160.487L393.242 153.954C391.626 154.308 390.308 155.467 388.764 156.07C387.219 156.674 385.392 156.73 383.676 156.807C380.63 156.946 377.601 157.339 374.62 157.982C374.21 158.065 373.695 158.326 373.795 158.725" fill="black"/>
<path d="M382.907 162.16C391.003 162.16 397.566 155.591 397.566 147.487C397.566 139.384 391.003 132.815 382.907 132.815C374.811 132.815 368.248 139.384 368.248 147.487C368.248 155.591 374.811 162.16 382.907 162.16Z" fill="#CDB883"/>
<path d="M386.942 171.674C387.726 169.979 388.858 168.469 390.264 167.241C392.329 165.429 395.152 163.961 395.639 161.257L400.112 166.471C400.355 166.713 400.544 167.004 400.666 167.324C400.722 167.625 400.714 167.934 400.641 168.231C400.569 168.528 400.433 168.807 400.245 169.047C399.138 170.815 397.394 172.078 395.744 173.358C391.963 176.356 388.343 179.552 384.9 182.933C384.748 183.109 384.544 183.233 384.318 183.287C384.104 183.293 383.894 183.233 383.715 183.116C380.744 181.554 378.114 179.414 375.981 176.821C375.821 176.627 375.622 176.406 375.361 176.422C375.205 176.451 375.06 176.526 374.946 176.638C373.457 177.857 371.83 179.315 369.92 179.126C372.394 177.348 373.795 174.378 374.315 171.369C374.418 170.339 374.63 169.323 374.946 168.338C375.11 167.845 375.393 167.4 375.77 167.043C376.146 166.685 376.605 166.426 377.105 166.288C375.898 168.133 376.723 170.748 378.345 172.239C379.921 173.578 381.811 174.495 383.837 174.904C385.719 175.259 386.272 173.125 386.942 171.674Z" fill="#323444"/>
<path d="M367.872 258.378C369.959 258.893 371.935 259.768 373.961 260.417C377.654 261.574 381.54 261.983 385.392 261.619C386.578 261.593 387.731 261.226 388.714 260.561C388.974 260.35 389.212 260.101 389.489 259.907C389.952 259.629 390.454 259.422 390.978 259.292C396.054 257.702 400.306 254.272 404.43 250.914C404.563 250.803 404.712 250.665 404.701 250.487C404.682 250.367 404.624 250.256 404.535 250.172L402.365 247.678C396.674 248.648 390.845 248.282 385.071 248.138C383.886 248.085 382.698 248.117 381.517 248.232C380.377 248.365 379.253 248.653 378.129 248.897C373.861 249.828 369.499 250.183 365.176 250.792C364.873 250.815 364.58 250.905 364.318 251.058C364.135 251.199 363.98 251.372 363.858 251.568L362.341 253.701C361.752 254.419 361.319 255.251 361.068 256.145C360.714 257.807 361.456 258.361 362.867 258.145C364.535 257.901 366.234 257.98 367.872 258.378Z" fill="#323444"/>
<path d="M384.839 180.395C383.145 178.658 381.225 177.158 379.131 175.935C378.285 175.397 377.347 175.021 376.363 174.826C375.869 174.729 375.359 174.741 374.869 174.861C374.379 174.982 373.922 175.208 373.529 175.525C373.036 175.962 372.726 176.572 372.25 177.032C371.651 177.536 370.964 177.924 370.224 178.179C367.704 179.256 365.316 180.619 363.105 182.24C361.9 183.084 360.814 184.087 359.878 185.221C357.37 188.435 356.994 192.807 357.06 196.885C357.11 199.722 359.828 201.827 361.699 203.949C363.454 206.038 365.042 208.261 366.449 210.598C367.456 212.194 368.508 213.923 368.381 215.824C368.276 217.381 367.368 218.843 367.512 220.395C367.561 220.949 367.739 221.459 367.788 221.996C367.888 223.104 367.451 224.212 367.34 225.321C367.191 226.889 367.7 228.446 367.728 230.025C367.707 231.106 367.57 232.182 367.318 233.233C366.255 238.297 364.921 243.39 365.192 248.559L362.125 249.113C362.416 249.398 362.635 249.748 362.766 250.133C362.896 250.519 362.934 250.93 362.876 251.333C362.819 251.736 362.667 252.12 362.434 252.453C362.2 252.787 361.892 253.06 361.533 253.252C366.321 254.854 371.497 254.045 376.574 254.039C380.775 254.039 384.96 254.593 389.157 254.516C393.353 254.438 397.682 253.679 401.142 251.302C402.083 250.659 402.946 249.906 403.937 249.346C405.265 248.658 406.695 248.19 408.172 247.961C410.909 247.438 413.69 247.19 416.476 247.218C417.838 247.218 419.321 247.274 420.406 246.454C421.602 245.545 421.906 243.899 422.067 242.409C422.228 240.835 422.327 239.256 422.355 237.677C422.401 236.447 422.336 235.216 422.161 233.998C421.995 233.107 421.779 232.226 421.513 231.36L419.426 224.002C418.563 220.965 419.764 217.635 420.019 214.488C420.08 213.746 420.091 212.881 419.521 212.405C419.316 212.233 419.033 212.117 418.967 211.851C418.937 211.724 418.934 211.593 418.956 211.466C418.979 211.338 419.028 211.216 419.1 211.108C420.207 208.892 421.868 206.936 423.385 204.936C425.932 201.427 428.297 197.789 430.47 194.037C429.79 186.184 426.486 178.791 421.093 173.048C419.986 171.845 418.718 170.693 417.168 170.15C416.155 169.84 415.104 169.671 414.046 169.646C409.706 169.352 405.188 169.092 401.407 166.909C401.136 166.72 400.829 166.59 400.505 166.526C399.669 166.432 399.06 167.258 398.518 167.911C397.123 169.574 395.069 170.527 393.264 171.751C389.898 174.04 387.269 177.187 384.839 180.395Z" fill="#C42824"/>
<path d="M430.847 196.303C431.71 199.04 431.627 201.966 431.91 204.819C432.077 206.541 432.379 208.248 432.812 209.922C433.01 210.843 433.366 211.722 433.864 212.521C434.362 213.253 435.076 213.845 435.392 214.671C435.564 215.23 435.641 215.815 435.619 216.4L435.685 220.223C435.827 222.249 435.519 224.281 434.783 226.174L432.397 233.438C431.107 237.372 429.784 241.367 427.459 244.791C427.131 245.371 426.635 245.837 426.036 246.127C425.567 246.251 425.087 246.325 424.602 246.348C423.758 246.499 422.993 246.939 422.439 247.594C421.884 248.248 421.574 249.075 421.563 249.933C421.009 249.123 420.318 248.416 419.521 247.844L414.666 243.966C413.005 242.614 411.272 241.24 409.257 240.458C411.967 239.611 414.374 237.995 416.184 235.805C417.994 233.616 419.13 230.948 419.454 228.124C419.452 227.284 419.642 226.454 420.008 225.697C420.412 225.044 421.159 224.545 421.215 223.775C421.281 222.805 420.185 222.074 420.185 221.104C420.185 220.461 420.661 219.929 420.871 219.325C421.068 218.579 421.068 217.794 420.871 217.048L420.202 213.325C420.162 212.952 420.049 212.59 419.869 212.261C419.619 211.945 419.341 211.652 419.039 211.385C417.888 210.094 418.397 208.061 419.039 206.471C420.514 202.941 422.414 199.604 424.697 196.536C425.509 195.505 426.262 194.428 426.95 193.311C427.536 192.291 427.669 190.878 428.289 189.986C429.086 192.081 430.166 194.148 430.847 196.303Z" fill="#D02D34"/>
<path d="M409.086 240.685C408.838 240.869 408.625 241.094 408.454 241.35C407.802 242.17 406.933 242.79 405.947 243.14C406.5 243.539 407.004 243.932 407.524 244.337C411.375 247.313 414.9 250.688 418.043 254.405C418.391 253.158 420.478 253.247 420.988 252.055C421.108 251.714 421.145 251.35 421.098 250.992C420.993 249.125 420.726 247.271 420.301 245.451C420.134 244.513 419.755 243.627 419.194 242.857C418.419 241.921 417.212 241.472 416.061 241.084C414.317 240.475 410.857 239.616 409.086 240.685Z" fill="#323444"/>
<path d="M402.166 245.041C400.505 246.271 399.049 247.811 397.184 248.653C395.866 249.252 394.366 249.512 393.214 250.404C393.84 251.784 395.467 252.499 396.979 252.443C398.491 252.294 399.941 251.762 401.191 250.897C402.182 250.288 403.345 249.579 404.424 250.005C404.59 250.847 403.871 251.64 403.871 252.493C403.871 253.346 404.579 253.967 405.277 254.416C408.598 256.56 412.872 256.383 416.83 256.133C417.057 256.142 417.281 256.076 417.467 255.945C417.553 255.845 417.618 255.729 417.659 255.603C417.699 255.478 417.715 255.345 417.705 255.214C417.755 254.338 417.777 253.468 417.782 252.593C417.894 251.887 417.803 251.164 417.518 250.508C417.234 249.852 416.769 249.292 416.177 248.891C414.029 247.043 411.712 245.402 409.257 243.988C406.821 242.575 404.352 243.412 402.166 245.041Z" fill="#C0AC7A"/>
<path d="M388.055 141.354C385.597 141.647 383.809 143.57 384.058 145.659C384.307 147.748 386.499 149.189 388.957 148.889C391.415 148.59 393.203 146.673 392.954 144.59C392.705 142.506 390.513 141.06 388.055 141.354ZM388.891 148.313C386.809 148.563 384.955 147.338 384.739 145.576C384.523 143.814 386.046 142.185 388.121 141.936C390.197 141.686 392.057 142.911 392.273 144.673C392.489 146.435 390.967 148.064 388.891 148.313Z" fill="#3C354C"/>
<path d="M376.075 142.794C373.618 143.088 371.829 145.011 372.079 147.094C372.328 149.178 374.52 150.624 376.978 150.33C379.436 150.036 381.224 148.114 380.975 146.025C380.726 143.936 378.533 142.501 376.075 142.794ZM376.911 149.748C374.83 149.998 372.975 148.773 372.765 147.017C372.555 145.26 374.066 143.626 376.147 143.371C378.229 143.116 380.083 144.346 380.294 146.108C380.504 147.87 378.987 149.499 376.911 149.748Z" fill="#3C354C"/>
<path d="M367.179 143.864L372.521 145.005L371.996 146.413L366.958 144.933L367.179 143.864Z" fill="#3C354C"/>
<path d="M396.957 140.284L392.03 142.661L392.877 143.903L397.422 141.271L396.957 140.284Z" fill="#3C354C"/>
<path d="M380.482 144.651L384.23 144.202L384.036 145.133L380.82 145.349L380.482 144.651Z" fill="#3C354C"/>
<path d="M373.214 143.393C373.566 142.634 373.755 141.809 373.767 140.972C373.78 140.47 373.866 139.974 374.022 139.498C374.294 138.893 374.708 138.362 375.229 137.952C376.956 136.489 379.43 135.735 381.872 135.63C384.533 135.507 387.181 136.08 389.555 137.292C390.28 137.632 390.93 138.115 391.465 138.711C392.24 139.658 392.406 140.883 393.187 141.819C393.719 142.387 394.39 142.808 395.133 143.041C395.875 143.274 396.666 143.311 397.427 143.149C397.698 142.185 397.344 141.165 397.483 140.179C397.701 139.334 397.995 138.511 398.363 137.719C399.221 135.187 397.97 132.25 395.39 130.737C394.488 130.183 393.419 129.823 392.744 129.075C392.069 128.327 391.908 127.551 391.443 126.803C390.208 124.825 387.014 123.9 384.584 124.814C383.82 125.102 383.145 125.54 382.37 125.85C380.93 126.443 379.292 126.549 377.709 126.748C376.148 126.892 374.622 127.293 373.191 127.934C371.824 128.61 370.678 129.696 370.363 130.992C370.213 131.591 370.246 132.211 370.097 132.804C369.333 135.813 364.401 137.276 364.124 140.345C364.024 141.454 364.627 142.517 365.38 143.421C365.901 144.036 367.146 145.681 368.026 145.92C368.907 146.158 369.576 145.321 370.418 145.033C371.747 144.617 372.549 144.529 373.214 143.393Z" fill="#CBCEDA"/>
<path d="M435.663 338.549C435.663 366.386 453.112 388.916 474.674 388.916L435.663 338.549Z" fill="#46455B"/>
<path d="M474.674 388.921C474.674 360.768 494.149 337.989 518.213 337.989L474.674 388.921Z" fill="#6C63FF"/>
<path d="M449.802 341.075C449.802 367.522 460.929 388.921 474.674 388.921L449.802 341.075Z" fill="#6740AA"/>
<path d="M474.674 388.921C474.674 352.95 497.183 323.838 524.994 323.838L474.674 388.921Z" fill="#46455B"/>
<path opacity="0.1" d="M472.985 398.54C478.342 398.54 482.684 397.806 482.684 396.9C482.684 395.994 478.342 395.26 472.985 395.26C467.629 395.26 463.287 395.994 463.287 396.9C463.287 397.806 467.629 398.54 472.985 398.54Z" fill="#6C63FF"/>
<path d="M466.47 389.276C466.47 389.276 472.006 389.104 473.666 387.918C475.327 386.732 482.175 385.308 482.59 387.215C483.005 389.121 490.894 396.695 484.655 396.745C478.416 396.795 470.14 395.77 468.479 394.756C466.819 393.742 466.47 389.276 466.47 389.276Z" fill="#A8A8A8"/>
<path opacity="0.2" d="M484.771 396.08C478.527 396.13 470.262 395.105 468.596 394.091C467.328 393.32 466.824 390.544 466.653 389.27H466.47C466.47 389.27 466.819 393.736 468.485 394.75C470.151 395.764 478.416 396.789 484.661 396.739C486.465 396.739 487.085 396.08 487.052 395.132C486.803 395.709 486.144 396.069 484.771 396.08Z" fill="black"/>
<path d="M12.4501 354.817C12.4501 376.98 26.3284 394.889 43.4838 394.889L12.4501 354.817Z" fill="#46455B"/>
<path d="M43.4838 394.889C43.4838 372.492 58.9841 354.368 78.1214 354.368L43.4838 394.889Z" fill="#6C63FF"/>
<path d="M23.6933 356.834C23.6933 377.889 32.5506 394.9 43.4838 394.9L23.6933 356.834Z" fill="#6740AA"/>
<path d="M43.4838 394.889C43.4838 366.27 61.3922 343.109 83.5188 343.109L43.4838 394.889Z" fill="#46455B"/>
<path opacity="0.1" d="M42.1386 402.546C46.4006 402.546 49.8555 401.961 49.8555 401.239C49.8555 400.516 46.4006 399.931 42.1386 399.931C37.8767 399.931 34.4217 400.516 34.4217 401.239C34.4217 401.961 37.8767 402.546 42.1386 402.546Z" fill="#6C63FF"/>
<path d="M36.9571 395.171C36.9571 395.171 41.3581 395.033 42.6811 394.063C44.0042 393.093 49.457 391.985 49.7836 393.509C50.1102 395.033 56.3989 401.05 51.4443 401.089C46.4898 401.128 39.8966 400.313 38.5735 399.51C37.2505 398.706 36.9571 395.171 36.9571 395.171Z" fill="#A8A8A8"/>
<path opacity="0.2" d="M51.5163 400.607C46.5341 400.646 39.9686 399.831 38.6455 399.022C37.638 398.413 37.2394 396.202 37.101 395.188H36.9571C36.9571 395.188 37.2339 398.739 38.5569 399.548C39.88 400.357 46.4621 401.166 51.4277 401.128C52.8615 401.128 53.3597 400.607 53.332 399.848C53.1327 400.291 52.5847 400.574 51.5163 400.607Z" fill="black"/>
</g>
<defs>
<clipPath id="clip0">
<rect width="525" height="420" fill="white"/>
</clipPath>
</defs>
</svg>
